<?xml version="1.0" encoding="UTF-8"?>
<svg xmlns="http://www.w3.org/2000/svg" viewBox="-24 -24 608 368" role="img" aria-label="Enneagram profile wheel Type 7">
  <defs>
    <linearGradient id="profileLineRelease" x1="305.8918542133544" y1="244.78462024097664" x2="207.42766412926824" y2="135.2181871006898" gradientUnits="userSpaceOnUse">
      <stop offset="0%" stop-color="#0067df"></stop>
      <stop offset="100%" stop-color="#1f8ec8"></stop>
    </linearGradient>
    <linearGradient id="profileLineStretch" x1="305.8918542133544" y1="244.78462024097664" x2="382" y2="166" gradientUnits="userSpaceOnUse">
      <stop offset="0%" stop-color="#0067df"></stop>
      <stop offset="100%" stop-color="#12b981"></stop>
    </linearGradient>
  </defs>
  <path d="M 267.3419587712959 305.8427009277335 A 142 142 0 0 1 183.2216890771051 257.2758405754886 L 215.3955556881022 230.27876096865393 A 100 100 0 0 0 274.635182233307 264.4807753012208 Z" fill="#c9ced3" stroke="#ffffff" stroke-width="2"></path><path d="M 183.2216890771051 257.2758405754886 A 142 142 0 0 1 150 165.99999999999997 L 192 166 A 100 100 0 0 0 215.3955556881022 230.27876096865393 Z" fill="#c9ced3" stroke="#ffffff" stroke-width="2"></path><path d="M 150 165.99999999999997 A 142 142 0 0 1 183.22168907710514 74.7241594245114 L 215.3955556881022 101.72123903134606 A 100 100 0 0 0 192 166 Z" fill="#1f8ec8" stroke="#ffffff" stroke-width="2"></path><path d="M 183.22168907710514 74.7241594245114 A 142 142 0 0 1 267.3419587712959 26.157299072266454 L 274.635182233307 67.5192246987792 A 100 100 0 0 0 215.3955556881022 101.72123903134606 Z" fill="#c9ced3" stroke="#ffffff" stroke-width="2"></path><path d="M 267.3419587712959 26.157299072266454 A 142 142 0 0 1 363 43.02439266260971 L 342 79.39745962155614 A 100 100 0 0 0 274.635182233307 67.5192246987792 Z" fill="#c9ced3" stroke="#ffffff" stroke-width="2"></path><path d="M 363 43.02439266260971 A 142 142 0 0 1 425.436352151599 117.43313964775504 L 385.9692620785909 131.79798566743312 A 100 100 0 0 0 342 79.39745962155614 Z" fill="#c9ced3" stroke="#ffffff" stroke-width="2"></path><path d="M 425.436352151599 117.43313964775504 A 142 142 0 0 1 425.436352151599 214.56686035224496 L 385.9692620785909 200.20201433256688 A 100 100 0 0 0 385.9692620785909 131.79798566743312 Z" fill="#12b981" stroke="#ffffff" stroke-width="2"></path><path d="M 425.436352151599 214.56686035224496 A 142 142 0 0 1 363 288.9756073373903 L 342 252.60254037844385 A 100 100 0 0 0 385.9692620785909 200.20201433256688 Z" fill="#c9ced3" stroke="#ffffff" stroke-width="2"></path><path d="M 363 288.9756073373903 A 142 142 0 0 1 267.3419587712959 305.8427009277335 L 274.635182233307 264.4807753012208 A 100 100 0 0 0 342 252.60254037844385 Z" fill="#0067df" stroke="#ffffff" stroke-width="2"></path>
  <circle cx="292" cy="166" r="100" fill="#ffffff" stroke="#9aa2a9" stroke-width="5"></circle>
  <path d="M 246.99999999999994 243.94228634059948 L 247.00000000000003 88.05771365940052 L 382 166 L 207.42766412926824 196.78181289931018 L 307.62833599002374 77.36730222890128 L 360.943999880708 223.85088487178854 L 207.42766412926824 135.2181871006898 L 360.943999880708 108.14911512821146 L 307.62833599002374 254.63269777109872 Z" fill="none" stroke="#e9edf1" stroke-width="5"></path>
  <path d="M 207.42766412926824 196.78181289931018 L 307.62833599002374 77.36730222890128 L 360.943999880708 223.85088487178854 Z" fill="none" stroke="#e9edf1" stroke-width="5"></path>
  <path fill="none" stroke-linecap="round" stroke-linejoin="round" d="M 305.8918542133544 244.78462024097664 L 207.42766412926824 135.2181871006898" stroke="url(#profileLineRelease)" stroke-width="8"></path>
  <path fill="none" stroke-linecap="round" stroke-linejoin="round" d="M 305.8918542133544 244.78462024097664 L 382 166" stroke="url(#profileLineStretch)" stroke-width="8"></path>
  <text x="108" y="166" text-anchor="end" font-family="'Inter', 'Avenir Next', 'Helvetica Neue', Arial, sans-serif" font-size="13" font-weight="800" dominant-baseline="middle" letter-spacing="0.02em" paint-order="stroke fill" stroke="#ffffff" stroke-width="3" stroke-linejoin="round" fill="#1f8ec8">Release</text><text x="479" y="166" text-anchor="start" font-family="'Inter', 'Avenir Next', 'Helvetica Neue', Arial, sans-serif" font-size="13" font-weight="800" dominant-baseline="middle" letter-spacing="0.02em" paint-order="stroke fill" stroke="#ffffff" stroke-width="3" stroke-linejoin="round" fill="#12b981">Stretch</text><text x="330.81642781329657" y="304" text-anchor="start" font-family="'Inter', 'Avenir Next', 'Helvetica Neue', Arial, sans-serif" font-size="13" font-weight="800" dominant-baseline="middle" letter-spacing="0.02em" paint-order="stroke fill" stroke="#ffffff" stroke-width="3" stroke-linejoin="round" fill="#0067df">Main</text>
  <text x="231.49999999999994" y="270.78907385791706" transform="rotate(-60, 231.49999999999994, 270.78907385791706)" font-family="'Avenir Next', 'Inter', 'Helvetica Neue', Arial, sans-serif" font-size="28" font-weight="800" fill="#ffffff" dominant-baseline="middle" text-anchor="middle">8</text><text x="178.2971928849051" y="207.3844373424059" transform="rotate(-20, 178.2971928849051, 207.3844373424059)" font-family="'Avenir Next', 'Inter', 'Helvetica Neue', Arial, sans-serif" font-size="28" font-weight="800" fill="#ffffff" dominant-baseline="middle" text-anchor="middle">9</text><text x="178.2971928849051" y="124.61556265759407" transform="rotate(20, 178.2971928849051, 124.61556265759407)" font-family="'Avenir Next', 'Inter', 'Helvetica Neue', Arial, sans-serif" font-size="28" font-weight="800" fill="#ffffff" dominant-baseline="middle" text-anchor="middle">1</text><text x="231.50000000000003" y="61.21092614208291" transform="rotate(60, 231.50000000000003, 61.21092614208291)" font-family="'Avenir Next', 'Inter', 'Helvetica Neue', Arial, sans-serif" font-size="28" font-weight="800" fill="#ffffff" dominant-baseline="middle" text-anchor="middle">2</text><text x="313.0114294976986" y="46.838261885522826" transform="rotate(100, 313.0114294976986, 46.838261885522826)" font-family="'Avenir Next', 'Inter', 'Helvetica Neue', Arial, sans-serif" font-size="28" font-weight="800" fill="#ffffff" dominant-baseline="middle" text-anchor="middle">3</text><text x="384.69137761739637" y="88.22269922792876" transform="rotate(140, 384.69137761739637, 88.22269922792876)" font-family="'Avenir Next', 'Inter', 'Helvetica Neue', Arial, sans-serif" font-size="28" font-weight="800" fill="#ffffff" dominant-baseline="middle" text-anchor="middle">4</text><text x="413" y="166" transform="rotate(180, 413, 166)" font-family="'Avenir Next', 'Inter', 'Helvetica Neue', Arial, sans-serif" font-size="28" font-weight="800" fill="#ffffff" dominant-baseline="middle" text-anchor="middle">5</text><text x="384.69137761739637" y="243.77730077207124" transform="rotate(220, 384.69137761739637, 243.77730077207124)" font-family="'Avenir Next', 'Inter', 'Helvetica Neue', Arial, sans-serif" font-size="28" font-weight="800" fill="#ffffff" dominant-baseline="middle" text-anchor="middle">6</text><text x="313.0114294976986" y="285.1617381144772" transform="rotate(260, 313.0114294976986, 285.1617381144772)" font-family="'Avenir Next', 'Inter', 'Helvetica Neue', Arial, sans-serif" font-size="28" font-weight="800" fill="#ffffff" dominant-baseline="middle" text-anchor="middle">7</text>
</svg>
